<svg xmlns="http://www.w3.org/2000/svg" viewBox="0 0 324.36 308.67"><defs><style>.cls-1{fill:#ccdd8a;}.cls-2{fill:#a0c43b;}</style></defs><title>Asset 4</title><g id="Layer_2" data-name="Layer 2"><g id="Layer_1-2" data-name="Layer 1"><path class="cls-1" d="M145.61,294.56c-26.55-2.64-26.5-39.76-72.47-69.65C36.87,201.32,15,210.2,4.44,190.09c-12.73-24.36,3.05-68.72,32.94-90.36C81.25,68,125.39,107,174.79,72.44c27.05-18.9,28.45-40.81,49.41-42.35,25-1.84,54.21,27,62.12,57.88,10.25,40-17.25,75.71-70.59,144.94C167.82,295.1,151.23,295.11,145.61,294.56Z"/><path class="cls-2" d="M138.09,278.56c-62.37-22.3-116.48-41.64-116.24-66.83.27-28.44,69.5-30.61,80.94-78.11C109,107.85,91.64,96,98.09,56.44c2.7-16.59,7.5-46.11,25.88-54.12,29.86-13,96.59,30.36,123.29,88,9.59,20.7,15.85,47.2,36.24,52.71,15.62,4.22,24.89-7.84,32.47-3.3,20.83,12.48,4,135.41-63.53,161.41C227.8,310.63,197.9,299.94,138.09,278.56Z"/><ellipse class="cls-2" cx="275.5" cy="82.09" rx="17.88" ry="19.06"/><circle class="cls-2" cx="306.79" cy="127.73" r="7.76"/><ellipse class="cls-2" cx="60.2" cy="54.56" rx="14.35" ry="15.53"/><ellipse class="cls-2" cx="107.03" cy="294.09" rx="16" ry="14.59"/></g></g></svg>